<?xml version="1.0" standalone="no"?>
<!DOCTYPE svg PUBLIC "-//W3C//DTD SVG 20010904//EN"
 "http://www.w3.org/TR/2001/REC-SVG-20010904/DTD/svg10.dtd">
<svg version="1.0" xmlns="http://www.w3.org/2000/svg"
 width="1000.000000pt" height="667.000000pt" viewBox="0 0 1000.000000 667.000000"
 preserveAspectRatio="xMidYMid meet">
<metadata>
Created by potrace 1.16, written by Peter Selinger 2001-2019
</metadata>
<g transform="translate(0.000000,667.000000) scale(0.100000,-0.100000)"
fill="#000000" stroke="none">
<path d="M0 5293 c0 -1291 2 -1377 18 -1389 9 -7 22 -13 27 -13 6 0 2 4 -7 10
-19 10 -25 39 -9 39 5 0 9 6 8 13 -1 36 4 49 18 44 19 -8 30 12 15 26 -10 9
-11 9 -5 -2 5 -9 3 -12 -5 -9 -17 5 -20 45 -4 45 7 0 11 -4 8 -9 -3 -4 1 -6 8
-3 7 3 14 17 15 31 3 54 20 44 22 -13 1 -32 4 -76 7 -98 4 -40 13 -263 17
-422 2 -80 2 -81 -16 -62 -22 23 -65 42 -78 33 -5 -3 -9 0 -9 6 0 6 -5 8 -10
5 -6 -4 -8 -11 -5 -16 4 -5 1 -9 -4 -9 -7 0 -11 -263 -11 -839 0 -946 -9 -854
80 -847 25 2 50 1 55 -4 6 -4 23 -10 39 -14 25 -6 28 -5 18 7 -7 8 -9 17 -5
20 6 6 -20 11 -40 8 -4 -1 -3 8 3 19 11 21 40 28 40 9 0 -5 6 -7 12 -3 10 6
10 5 0 -8 -17 -21 2 -35 48 -33 19 1 38 -3 43 -9 5 -8 10 -6 17 4 5 8 10 10
10 4 0 -7 11 -9 26 -6 20 4 25 2 19 -8 -5 -9 -4 -11 3 -6 6 4 22 2 34 -5 16
-9 23 -9 26 0 2 6 8 9 13 5 5 -3 9 0 9 7 0 8 4 8 15 -1 13 -11 14 -10 9 4 -4
11 -1 16 14 16 11 0 22 6 25 14 6 15 -18 16 -63 1 -22 -7 -23 -6 -12 8 12 14
10 15 -17 4 -16 -6 -28 -14 -25 -19 3 -4 11 -5 18 -2 8 3 17 0 22 -7 4 -7 3
-10 -4 -5 -5 3 -13 0 -16 -6 -3 -9 -9 -7 -18 7 -7 11 -13 23 -14 28 -1 4 -2 8
-4 10 -1 1 -3 10 -5 20 -2 11 3 17 16 17 10 0 19 -7 19 -15 0 -8 4 -15 10 -15
5 0 9 5 7 11 -1 7 13 16 32 21 24 7 31 12 22 18 -11 6 -11 9 0 13 10 4 8 6 -4
6 -10 1 -25 8 -34 16 -12 12 -18 13 -29 4 -11 -9 -15 -8 -19 3 -4 9 -16 14
-28 13 -12 -1 -34 6 -49 14 -29 16 -37 31 -16 31 6 0 8 3 5 6 -4 4 -13 1 -21
-5 -8 -7 -30 -12 -48 -10 -18 1 -44 -3 -58 -8 -14 -6 -34 -7 -46 -2 -12 4 -25
5 -28 2 -3 -4 -6 -2 -6 4 0 6 -9 13 -20 16 -11 3 -20 10 -20 16 0 11 17 14 78
14 17 -1 32 4 32 9 0 5 4 7 9 4 5 -3 11 3 14 13 3 12 -1 22 -9 25 -8 3 -14 20
-14 41 0 28 4 35 20 35 11 0 27 -11 35 -24 15 -23 15 -26 -4 -45 -32 -32 -25
-50 22 -55 47 -6 87 -18 82 -25 -2 -5 12 -6 33 -4 20 3 65 4 100 4 36 -1 62 3
62 9 0 5 5 10 11 10 5 0 7 -5 4 -10 -3 -6 1 -10 9 -10 10 0 13 6 10 15 -4 8
-18 15 -32 15 -13 0 -65 10 -113 22 -70 17 -86 25 -78 35 6 7 14 11 18 9 4 -3
33 4 66 15 32 10 75 19 95 19 22 0 43 7 51 16 12 14 14 14 20 -3 4 -10 8 -76
8 -148 1 -71 7 -251 15 -400 29 -533 54 -1324 45 -1382 -4 -24 -3 -41 4 -45
25 -16 -5 -18 -59 -5 -33 8 -96 23 -141 33 -45 10 -80 21 -78 25 3 3 -7 4 -22
1 -20 -4 -24 -2 -18 8 6 10 4 12 -9 7 -10 -4 -15 -3 -11 3 3 6 2 10 -3 10 -5
0 -9 7 -9 15 0 13 4 12 20 -2 11 -10 17 -12 13 -5 -4 6 -3 12 3 12 5 0 15 -8
20 -17 6 -11 11 -13 11 -5 0 7 4 11 9 7 5 -3 13 0 16 6 4 6 18 8 31 5 13 -4
24 -2 24 3 0 12 -29 41 -41 41 -5 0 -8 4 -6 8 1 5 -11 20 -28 35 -27 23 -28
26 -10 27 11 1 0 8 -25 16 -25 7 -54 13 -65 11 -14 -1 -19 3 -17 14 3 18 -21
42 -46 45 -10 1 -28 5 -42 9 -14 4 -33 7 -43 7 -9 -1 -17 3 -17 9 0 5 -7 9
-16 9 -27 0 -54 20 -48 35 4 8 9 13 13 10 4 -2 8 2 8 10 0 19 -16 19 -23 0 -4
-8 -10 -15 -15 -15 -6 0 -6 7 0 18 7 14 5 23 -10 35 -19 17 -19 13 -19 -298
l0 -315 520 0 c286 0 520 1 520 3 0 1 -15 41 -34 88 -18 48 -42 130 -51 183
-10 53 -21 98 -25 101 -5 3 -36 -11 -70 -30 -35 -20 -64 -34 -66 -33 -7 7 -46
939 -59 1423 -6 214 -17 406 -35 620 -5 66 -12 215 -15 330 -3 116 -10 332
-15 480 -6 149 -15 406 -20 571 -9 281 -16 461 -40 1019 -5 121 -12 293 -16
383 l-7 162 46 0 c44 0 46 1 49 33 l3 32 342 2 342 2 3 -72 c2 -56 6 -72 18
-72 12 0 14 13 12 71 l-3 72 47 7 c66 10 70 2 51 -99 -10 -46 -17 -102 -17
-123 0 -21 -7 -63 -16 -93 -14 -53 -29 -129 -41 -215 -3 -22 -11 -51 -18 -65
-7 -14 -15 -37 -19 -53 -9 -38 -54 -134 -86 -182 -15 -22 -30 -48 -33 -58 -4
-10 -21 -24 -39 -32 -22 -9 -26 -14 -14 -15 14 0 16 -3 7 -14 -21 -25 -83
-148 -77 -153 3 -3 11 6 17 20 6 14 18 28 25 31 13 5 -43 -113 -71 -148 -19
-25 -30 -15 -15 13 6 12 8 21 5 21 -9 0 -77 -149 -73 -161 2 -7 15 11 28 39
14 28 30 53 36 54 7 2 65 54 129 116 114 109 147 132 110 75 l-18 -27 39 30
c57 44 94 66 94 56 0 -5 -18 -32 -41 -61 -22 -28 -39 -51 -37 -51 3 0 22 16
44 35 48 44 179 135 192 135 6 0 13 -6 16 -12 3 -10 8 -9 18 2 7 8 26 24 42
34 26 17 43 18 148 13 94 -4 125 -9 152 -25 l35 -21 3 27 c2 18 10 28 23 30
11 2 27 10 36 18 9 8 23 12 32 8 13 -5 15 -17 11 -72 -3 -37 -5 -88 -5 -114 1
-26 -5 -66 -13 -89 -16 -47 -14 -58 8 -40 8 7 19 48 26 99 15 116 30 182 41
182 65 0 525 -352 584 -447 16 -26 54 -82 84 -123 29 -41 81 -122 115 -179 60
-103 61 -104 64 -68 2 25 -8 62 -32 118 -20 46 -36 90 -36 98 0 9 -20 61 -44
116 -25 55 -42 103 -40 107 3 4 30 -8 62 -27 58 -36 91 -47 56 -20 -18 14 -17
14 11 4 45 -16 63 -37 70 -82 12 -70 14 -80 20 -85 3 -3 5 1 5 10 0 8 11 21
25 28 19 10 22 16 14 32 -5 10 -7 23 -4 28 3 6 2 10 -4 10 -6 0 -13 11 -17 25
-3 14 -9 25 -13 25 -8 0 -29 40 -27 52 0 3 -21 23 -49 45 -133 102 -231 229
-275 358 -11 33 -23 67 -27 75 -3 8 -7 17 -8 20 -27 88 -38 115 -52 126 -17
12 -17 13 2 10 30 -5 38 4 18 20 -10 7 -15 14 -10 14 4 0 28 -19 54 -42 50
-46 49 -37 -4 28 -49 61 -30 71 166 83 123 7 124 7 152 39 24 27 29 41 29 85
0 40 6 61 26 91 19 28 25 46 20 67 -4 22 0 35 15 50 17 17 19 28 14 74 l-7 54
47 13 c31 8 50 20 55 33 11 29 0 41 -14 14 -6 -13 -28 -30 -49 -38 -33 -12
-40 -12 -48 0 -6 10 -3 15 11 17 25 4 26 18 3 31 -12 6 -26 5 -45 -5 -32 -16
-37 -34 -10 -34 16 0 20 -21 13 -69 -3 -22 -112 -42 -181 -34 -41 5 -50 9 -45
22 3 11 0 10 -10 -3 -14 -19 -21 -66 -9 -66 3 0 14 5 24 10 18 10 107 -5 120
-20 3 -3 22 -19 43 -34 l38 -29 -37 -33 c-24 -22 -34 -39 -30 -50 24 -63 19
-101 -21 -140 -25 -25 -30 -26 -87 -19 -34 3 -100 9 -147 11 -94 6 -94 6 -151
-64 -13 -16 -50 -116 -48 -130 0 -1 -6 -15 -14 -30 -7 -15 -12 -37 -10 -49 2
-13 -1 -23 -7 -23 -5 0 -7 -4 -4 -10 3 -5 1 -10 -4 -10 -6 0 -11 -6 -11 -14 0
-8 -5 -16 -11 -18 -21 -7 -22 -90 -1 -146 11 -29 16 -54 11 -58 -5 -3 -24 4
-43 15 -18 12 -41 21 -50 21 -9 0 -16 7 -16 15 0 8 -6 15 -13 15 -8 0 -27 11
-43 25 -16 14 -35 25 -41 25 -7 0 -13 9 -13 20 0 11 4 20 9 20 5 0 21 21 36
46 22 37 26 54 21 86 -9 57 -31 114 -59 156 -25 37 -46 122 -30 122 4 0 25 -5
46 -11 71 -19 137 15 137 70 l0 26 -26 -32 c-14 -18 -32 -33 -40 -33 -13 0
-13 2 0 16 9 8 16 16 16 17 0 1 -18 3 -41 3 -32 1 -48 9 -76 35 -57 55 -82
116 -43 106 11 -3 20 -3 20 0 0 10 -23 46 -41 64 -10 10 -19 30 -19 44 0 14
-7 42 -16 63 -8 20 -17 57 -20 80 -2 24 -6 48 -9 52 -8 13 29 30 52 24 11 -3
25 1 33 11 18 22 6 29 -30 17 -37 -14 -73 -2 -112 36 -31 28 -34 48 -16 87 7
16 19 25 32 24 37 -3 56 1 56 12 0 5 -4 8 -9 4 -5 -3 -12 -1 -15 4 -8 13 16
20 47 14 21 -4 27 -1 27 12 0 14 -6 16 -27 10 -16 -3 -41 -13 -58 -20 -27 -13
-26 -11 11 23 46 41 49 67 8 51 -35 -13 -44 -11 -44 6 0 8 11 22 25 31 28 19
32 36 10 54 -8 7 -15 19 -15 26 0 27 39 13 92 -31 29 -25 62 -48 73 -51 12 -3
28 -17 37 -31 15 -26 16 -26 22 -5 8 24 25 30 27 10 1 -7 3 -23 4 -36 2 -24
12 -38 20 -30 6 6 9 98 4 118 -2 8 1 16 6 18 17 5 44 66 33 73 -28 18 85 141
182 198 30 18 82 61 115 95 46 48 72 66 114 79 65 21 120 22 165 3 39 -16 89
-84 105 -142 6 -23 22 -53 36 -68 14 -15 25 -36 25 -47 0 -11 5 -17 10 -14 6
3 10 17 10 30 0 13 5 27 10 30 6 3 10 12 10 18 0 7 -4 6 -10 -3 -7 -11 -10
-12 -10 -2 0 7 7 20 15 28 13 14 15 14 15 -1 0 -9 4 -14 10 -10 5 3 7 13 4 23
-5 14 -4 15 5 2 15 -20 14 -120 0 -120 -8 0 -9 13 -5 40 4 25 2 40 -4 40 -5 0
-10 -15 -10 -34 0 -19 -7 -41 -15 -50 -19 -18 -20 -40 -2 -33 11 4 13 -10 11
-65 -3 -81 -17 -107 -35 -62 -6 16 -13 23 -16 17 -3 -8 -15 -3 -35 16 -24 22
-36 27 -52 21 -14 -5 -34 -1 -61 13 -32 17 -56 21 -119 19 -108 -2 -116 -15
-27 -42 42 -13 70 -27 68 -34 -2 -6 -46 -22 -98 -36 -110 -29 -119 -45 -44
-73 60 -22 88 -45 82 -68 -9 -32 12 -49 60 -49 48 0 72 17 73 53 0 26 40 76
74 94 l29 15 -6 -61 c-4 -33 -2 -72 3 -85 11 -31 44 -28 48 5 2 13 16 41 31
64 42 61 46 69 32 60 -10 -6 -11 -3 -3 11 26 50 51 115 67 170 14 52 15 70 5
118 -6 31 -15 54 -19 51 -5 -2 -6 7 -3 20 2 15 -3 36 -14 52 -23 35 -64 121
-62 131 2 9 -134 115 -202 156 -30 18 -54 38 -53 44 3 11 -48 32 -69 28 -7 -2
-31 -6 -52 -11 -34 -7 -41 -5 -58 16 -14 16 -18 18 -14 7 7 -23 -10 -24 -22
-2 -6 10 -26 18 -51 20 -71 7 -81 17 -81 79 l0 55 -80 0 -80 0 0 -45 0 -45
-42 22 c-68 36 -132 30 -263 -24 l-110 -44 -3 68 -3 68 -35 0 -35 0 2 -84 2
-85 -69 -75 c-78 -84 -138 -185 -177 -296 -26 -76 -82 -307 -111 -455 -14 -72
-58 -211 -71 -224 -3 -2 -29 -6 -58 -7 -45 -3 -55 0 -73 23 -23 27 -44 24 -44
-8 0 -17 -8 -19 -92 -20 -51 0 -205 -1 -343 -2 l-250 -2 -3 23 c-3 19 -9 22
-46 22 l-43 0 -6 68 c-4 37 -7 96 -7 131 0 45 -5 70 -16 82 -14 15 -18 65 -27
309 -9 260 -8 292 6 308 13 14 15 38 10 155 l-6 137 -269 0 -268 0 0 -1377z
m405 -989 c8 -9 13 -24 10 -34 -3 -10 2 -25 10 -34 18 -17 50 -22 40 -6 -10
17 11 11 27 -7 12 -14 17 -51 21 -150 l5 -131 -41 -5 c-23 -3 -54 -8 -68 -12
-23 -6 -28 -3 -38 26 -12 34 -16 351 -4 362 10 11 20 8 38 -9z m139 -824 c11
-307 15 -429 21 -650 3 -107 10 -279 17 -382 10 -183 6 -269 -12 -221 -5 11
-9 72 -10 135 -2 122 -11 344 -35 808 -19 368 -22 541 -10 560 16 25 22 -24
29 -250z"/>
<path d="M4920 6593 c0 -43 -3 -108 -7 -145 l-6 -68 27 0 26 0 0 -127 c0 -174
-8 -230 -31 -236 -15 -4 -19 -15 -19 -50 0 -40 3 -46 23 -49 22 -3 22 -5 20
-143 -2 -139 -3 -140 -29 -160 -15 -11 -55 -43 -88 -71 l-61 -51 -315 -4 -315
-4 -3 28 c-3 27 -4 27 -78 27 l-74 0 0 -29 0 -29 -267 -6 c-148 -4 -290 -8
-318 -9 -27 0 -76 0 -107 1 -50 2 -57 4 -60 25 -2 17 -11 23 -35 25 -28 3 -32
1 -26 -15 4 -10 22 -37 41 -61 l35 -43 363 5 364 6 0 -30 0 -30 75 0 c74 0 75
0 75 25 0 14 6 28 13 30 20 8 567 11 567 3 0 -4 -9 -22 -19 -40 -29 -51 -67
-183 -96 -337 -24 -128 -172 -414 -262 -506 -49 -51 -143 -104 -225 -125 -65
-18 -179 -73 -174 -85 2 -6 -2 -19 -10 -30 -13 -17 -14 -17 -14 -1 0 9 -6 16
-12 15 -24 -3 -39 1 -34 9 10 17 -33 9 -50 -9 -16 -18 -20 -30 -26 -76 -1 -7
-6 -13 -11 -13 -5 0 -7 6 -4 14 4 9 -3 16 -16 20 -40 11 -52 5 -22 -9 l30 -14
-40 4 -40 4 38 -11 c20 -6 37 -15 37 -19 0 -7 -68 5 -77 15 -8 7 -33 -13 -33
-26 0 -6 6 -5 15 2 8 6 20 10 27 8 7 -3 -2 -11 -19 -18 -32 -15 -62 -54 -50
-66 4 -4 0 -12 -9 -18 -8 -6 -16 -21 -17 -33 0 -12 -4 -20 -7 -18 -8 5 -50
-80 -50 -98 0 -7 -20 -43 -44 -80 -25 -38 -52 -91 -62 -120 -9 -29 -41 -92
-71 -142 -29 -49 -53 -99 -53 -110 0 -11 -9 -31 -19 -45 -18 -23 -21 -23 -38
-9 -40 34 -167 100 -182 94 -20 -8 -10 -16 120 -93 l97 -57 6 -59 c3 -32 6
-82 6 -110 0 -28 3 -75 6 -103 l7 -53 61 53 c79 68 105 84 149 91 20 3 58 11
83 16 26 6 81 11 123 12 88 2 128 -17 138 -64 4 -22 8 -26 19 -17 16 13 30 6
37 -21 4 -15 0 -20 -13 -20 -11 0 -21 4 -25 9 -3 6 -18 6 -38 0 -17 -5 -76
-10 -129 -11 -53 -1 -95 -6 -92 -10 3 -5 59 -6 123 -2 135 8 154 2 171 -52 8
-23 17 -34 26 -30 10 4 13 -1 10 -17 -3 -12 -5 -28 -5 -36 -1 -10 -10 -11 -33
-6 -42 8 -74 10 -170 7 -62 -2 -78 -5 -78 -17 0 -12 14 -15 68 -15 37 0 84 -5
105 -11 30 -8 37 -15 37 -35 0 -14 4 -24 9 -22 5 2 113 54 239 117 177 88 229
118 225 130 -4 13 -3 14 5 2 9 -12 18 -11 63 8 45 18 55 19 67 8 12 -12 7 -21
-35 -62 -39 -39 -42 -43 -13 -22 19 13 41 27 48 31 20 12 14 -22 -9 -43 -13
-11 -18 -24 -14 -32 5 -7 4 -10 -2 -6 -6 4 -18 -2 -27 -12 -10 -10 -14 -21 -9
-23 4 -3 3 -4 -4 -2 -11 3 -43 -26 -43 -38 0 -11 -105 -116 -127 -127 -13 -6
-52 -21 -88 -32 -62 -19 -304 -115 -476 -189 -63 -27 -80 -39 -93 -67 -21 -44
-39 -50 -91 -31 l-43 16 -18 -44 c-15 -37 -21 -43 -39 -37 -31 10 -35 9 -113
-27 -48 -23 -72 -39 -72 -51 0 -9 -8 -27 -19 -40 -18 -22 -19 -22 -44 -6 -25
16 -28 16 -103 -25 -67 -36 -75 -43 -57 -51 17 -7 58 4 104 30 3 2 14 -12 25
-32 12 -23 26 -35 40 -35 19 0 22 -7 27 -71 3 -39 13 -81 21 -94 8 -12 19 -38
24 -56 10 -34 10 -33 11 16 1 43 -10 104 -46 268 -6 28 -5 28 33 21 62 -11 73
-21 90 -82 48 -172 79 -242 110 -242 7 0 -1 55 -12 98 -8 28 8 29 58 4 27 -14
35 -15 31 -5 -3 7 -15 19 -26 25 -21 11 -21 11 5 33 22 19 23 23 9 32 -27 17
-3 63 48 90 67 35 148 99 167 133 22 36 30 38 40 8 3 -12 17 -33 30 -47 29
-31 28 -40 -23 -186 -19 -55 -42 -124 -50 -153 -18 -59 -32 -70 -95 -75 -23
-2 -59 -13 -78 -25 -41 -26 -76 -25 -74 1 1 12 -4 17 -15 15 -9 -2 -22 3 -29
12 -27 31 -1 -76 129 -530 72 -250 175 -634 229 -853 55 -220 102 -407 105
-417 5 -15 -3 -23 -35 -39 -44 -21 -68 -21 -265 -3 -67 6 -80 10 -79 24 2 19
15 22 -151 -43 l-60 -24 112 -3 c97 -2 116 0 145 18 18 11 44 20 58 20 22 0
19 -3 -15 -19 -40 -19 -33 -19 683 -20 l722 0 1 127 c0 70 6 156 14 192 l13
65 1 -80 c1 -44 4 -131 8 -192 l6 -113 403 0 403 0 3 28 c3 24 23 36 23 13 0
-17 15 -24 28 -13 8 7 18 8 22 4 5 -4 5 -2 1 5 -3 6 2 17 11 23 15 9 15 10 -6
4 -14 -3 -21 -2 -18 3 4 6 -7 9 -23 8 -24 -1 -29 3 -34 28 -11 56 -6 110 14
142 36 58 42 126 25 265 -15 111 -15 131 -2 180 l15 55 7 -50 c4 -27 18 -104
31 -170 52 -266 67 -405 44 -405 -5 0 -10 -4 -10 -10 0 -5 7 -10 15 -10 11 0
15 -12 15 -50 l0 -50 805 0 c530 0 805 3 805 10 0 6 6 10 14 10 8 0 17 7 20
16 5 14 4 15 -9 4 -14 -11 -14 -10 -5 14 5 15 8 31 5 36 -3 5 1 11 7 13 10 4
10 7 0 15 -18 12 -12 31 21 64 15 15 27 36 27 47 0 11 5 23 10 26 6 4 8 10 5
15 -3 5 8 7 25 5 16 -2 33 1 36 7 4 7 2 8 -4 4 -8 -5 -11 1 -10 18 1 15 8 26
14 26 15 0 26 28 17 43 -4 7 -6 20 -5 30 2 9 -2 17 -8 17 -6 0 -9 -4 -5 -9 3
-5 1 -12 -4 -15 -9 -6 -26 22 -23 36 1 4 -5 5 -13 2 -8 -4 -15 -1 -15 5 0 15
12 14 46 -3 15 -8 31 -13 36 -10 5 3 7 0 6 -8 -2 -7 3 -12 10 -11 6 2 12 -2
12 -9 0 -6 6 -4 13 5 12 17 33 18 67 4 8 -4 35 -5 60 -3 25 1 50 -1 55 -5 6
-4 19 0 30 8 16 12 16 14 3 10 -10 -3 -20 -2 -24 4 -3 6 -12 8 -20 5 -7 -3
-19 1 -26 8 -7 7 -18 11 -25 9 -6 -2 -14 0 -17 6 -8 13 29 24 55 16 20 -7 20
-6 5 17 -9 14 -13 28 -9 31 3 4 -1 7 -11 7 -10 0 -14 -5 -10 -12 4 -6 3 -8 -4
-4 -5 3 -12 3 -15 -1 -2 -5 -3 -3 -1 3 1 7 -8 14 -21 17 -14 2 -22 0 -19 -4 9
-14 -6 -10 -23 6 -13 14 2 15 143 10 87 -3 161 -9 164 -14 3 -5 15 -11 28 -15
12 -4 22 -12 22 -17 0 -6 4 -8 8 -5 5 3 18 -2 28 -12 11 -9 26 -18 34 -20 8
-2 20 -10 26 -18 6 -7 18 -14 26 -14 17 0 48 -31 48 -47 0 -6 11 -8 25 -5 15
2 25 0 25 -7 0 -7 -6 -9 -12 -5 -10 6 -10 4 0 -7 17 -18 15 -34 -2 -20 -11 9
-15 9 -19 -1 -3 -8 -6 -6 -6 5 -1 10 -5 16 -11 12 -5 -3 -25 1 -45 9 -19 8
-35 12 -35 8 0 -4 -9 4 -20 18 l-19 25 5 -25 6 -25 -22 25 c-12 14 -19 19 -15
13 3 -7 2 -13 -2 -13 -5 0 -15 6 -22 13 -11 10 -12 9 -6 -3 8 -13 7 -13 -8 -1
-23 19 -32 7 -15 -18 8 -12 18 -18 22 -14 3 4 13 -2 21 -13 8 -10 15 -14 15
-8 0 6 7 11 15 11 9 0 14 -6 11 -13 -3 -8 0 -11 9 -7 22 8 30 -24 11 -42 -9
-9 -16 -11 -16 -5 0 15 -53 7 -56 -9 -1 -6 0 -7 3 -1 8 17 23 0 23 -26 0 -14
3 -23 8 -21 12 8 31 -19 22 -33 -6 -9 -10 -8 -17 5 -7 12 -13 14 -17 6 -4 -6
-2 -11 3 -11 6 0 11 -6 11 -14 0 -7 7 -26 15 -42 9 -18 11 -30 4 -34 -5 -4 -7
-14 -3 -23 4 -13 10 -14 24 -7 26 14 30 13 29 -7 0 -11 -3 -13 -6 -6 -6 17
-43 -2 -43 -22 0 -9 -6 -12 -17 -8 -15 5 -14 3 2 -10 18 -14 111 -16 863 -17
l842 0 0 495 0 495 -42 0 c-60 0 -466 46 -568 64 -47 9 -164 25 -260 36 -247
30 -240 28 -240 58 0 9 -9 49 -21 87 -90 300 -100 344 -89 387 l10 35 53 -4
c186 -16 1016 -118 1130 -139 l27 -6 0 125 0 124 -57 6 c-32 4 -292 32 -578
63 -480 53 -526 57 -600 46 -72 -10 -83 -15 -110 -46 -30 -35 -67 -52 -181
-81 -32 -8 -44 -13 -27 -12 39 4 36 0 -15 -23 -21 -10 -46 -14 -57 -10 -17 6
-16 8 10 18 26 11 20 11 -40 7 -38 -3 -83 -9 -100 -14 l-30 -9 27 -1 c21 -1
26 -5 21 -18 -4 -11 -3 -14 5 -9 7 4 12 2 12 -3 0 -6 3 -10 8 -9 4 1 21 -5 37
-12 34 -14 155 -30 155 -19 0 3 11 4 25 1 14 -2 22 -9 19 -14 -3 -5 -12 -7
-20 -4 -7 3 -17 -2 -22 -11 -6 -11 -11 -12 -16 -4 -4 6 -11 11 -17 11 -14 0
-11 -27 4 -34 6 -3 -10 -5 -38 -5 -105 1 -117 0 -112 -15 4 -9 -1 -17 -11 -20
-37 -11 127 6 191 21 38 8 71 13 73 10 3 -3 -20 -11 -50 -18 -56 -12 -64 -18
-29 -23 22 -4 49 -49 59 -100 6 -36 6 -38 -14 -27 -33 18 -44 13 -23 -10 20
-22 36 -63 20 -53 -5 3 -9 0 -9 -6 0 -6 -6 -8 -12 -4 -8 4 -10 3 -5 -2 5 -5
13 -9 18 -9 5 0 9 -4 9 -10 0 -5 -9 -10 -20 -10 -11 0 -19 -4 -17 -10 1 -5 8
-9 15 -9 6 1 12 -9 12 -23 0 -20 4 -23 23 -18 17 5 19 4 7 -4 -8 -6 -11 -11
-6 -11 4 0 -2 -9 -15 -21 l-24 -20 28 5 c33 8 36 -1 5 -14 -16 -6 -18 -9 -7
-9 9 -1 33 6 54 15 52 21 61 14 19 -15 -32 -23 -48 -25 -172 -29 -112 -4 -156
0 -243 17 -116 23 -137 25 -100 10 29 -11 24 -21 -7 -12 -12 3 -22 12 -22 20
0 9 -6 12 -18 9 -22 -7 -82 29 -82 50 0 10 -6 14 -14 11 -26 -10 -106 109
-106 158 0 7 -7 16 -16 19 -9 3 -14 15 -12 28 2 18 10 23 36 24 29 1 33 -2 43
-40 22 -87 32 -108 66 -141 60 -58 150 -102 241 -118 74 -13 110 -9 82 8 -5 3
-10 17 -10 31 0 13 -3 24 -7 25 -30 3 -58 11 -69 20 -8 7 -14 6 -17 -3 -4 -8
-8 -9 -14 -3 -12 14 -49 11 -45 -4 1 -7 -2 -10 -8 -6 -6 3 -8 11 -5 16 4 5 -1
9 -10 9 -9 0 -13 -4 -10 -10 3 -5 2 -10 -4 -10 -5 0 -13 5 -16 10 -4 6 -10 8
-15 5 -5 -3 -11 -1 -15 5 -3 5 1 10 9 10 9 0 16 4 16 10 0 5 -6 9 -12 7 -7 -1
-12 4 -11 10 2 7 -4 13 -13 13 -9 0 -25 11 -36 25 -11 14 -24 22 -29 19 -6 -3
-10 0 -8 7 4 30 -2 40 -27 49 -22 9 -25 15 -22 40 5 30 4 30 -46 32 -38 1 -42
2 -16 5 19 2 45 6 58 8 20 5 21 7 8 20 -10 11 -27 13 -60 9 -53 -8 -56 0 -21
39 26 27 49 35 59 19 4 -8 69 -9 121 -2 15 2 13 4 -10 10 -19 6 17 8 100 8
156 -1 158 -1 150 12 -4 6 7 10 25 10 17 0 29 -4 26 -9 -7 -10 90 -19 105 -10
5 3 -8 11 -30 19 -21 7 -45 9 -51 5 -9 -6 -11 -4 -5 5 6 9 -5 11 -46 6 -30 -3
-117 -10 -194 -15 -78 -5 -145 -10 -150 -11 -6 -2 -17 -2 -25 -1 -12 1 -13 3
-1 10 16 10 6 31 -15 31 -8 0 -12 -4 -9 -10 10 -15 -8 -12 -35 7 l-24 17 24 6
c24 6 23 7 -7 11 -32 5 -32 5 -44 -49 -6 -30 -9 -106 -7 -169 l3 -113 -27 0
c-16 0 -28 4 -28 9 0 5 9 7 21 4 21 -6 21 -4 15 78 -8 94 -16 117 -16 43 0
-27 -5 -56 -10 -64 -7 -10 -9 25 -8 109 2 89 7 126 16 129 7 2 12 -6 13 -20 0
-22 1 -22 9 -3 19 44 6 51 -105 61 -71 7 -151 24 -191 40 -50 21 -111 18 -124
-5 -13 -26 -13 -64 0 -56 6 4 10 16 8 28 -2 17 4 22 32 28 37 8 50 4 50 -13 0
-6 -12 -8 -30 -4 -17 3 -30 1 -30 -4 0 -6 15 -10 33 -10 24 0 41 -9 70 -39 40
-41 46 -54 22 -45 -9 4 -33 -8 -58 -28 -24 -19 -53 -34 -67 -34 -21 1 -26 7
-31 36 l-6 35 -2 -31 c-1 -35 12 -50 49 -57 25 -4 25 -4 -2 -6 -26 -1 -28 -4
-29 -48 -2 -46 -2 -46 -8 -13 -6 32 -8 33 -15 13 -4 -13 -12 -23 -18 -23 -6 0
-3 10 6 23 34 47 38 57 21 57 -9 0 -15 9 -15 24 0 14 -4 27 -10 31 -5 3 -7 13
-4 23 5 14 4 14 -4 3 -9 -12 -15 -13 -37 -3 -35 16 -43 15 -19 -4 18 -14 18
-15 -3 -4 -13 6 -22 14 -21 18 1 4 -3 17 -10 29 -8 14 -9 24 -2 28 12 7 4 25
-11 25 -5 0 -9 -8 -9 -17 0 -14 -2 -15 -9 -4 -8 12 -4 51 6 51 2 0 9 -5 16
-10 7 -6 24 -19 40 -31 15 -11 27 -26 27 -34 0 -7 9 -15 21 -18 19 -5 21 -2
17 29 -2 19 0 34 4 34 4 0 8 10 8 23 0 16 -12 28 -46 46 -25 14 -60 42 -78 63
-26 30 -36 35 -44 26 -10 -13 -29 -121 -35 -203 -3 -26 -4 -19 -5 22 -2 64 14
160 29 179 11 13 2 21 -67 59 -67 37 -95 78 -88 126 6 34 5 36 -26 43 -18 3
-47 6 -64 6 -51 0 -74 10 -80 35 -5 19 -15 25 -49 29 -38 5 -491 25 -597 27
-25 0 -38 3 -30 6 40 13 60 28 77 60 l18 34 70 -6 c112 -9 479 -25 483 -20 13
12 -33 117 -73 165 -29 36 -45 65 -45 82 0 22 -7 31 -33 42 -19 7 -43 26 -55
41 -15 18 -22 22 -22 12 0 -21 -56 -66 -111 -89 -26 -11 -52 -29 -58 -41 -8
-16 -22 -23 -48 -24 -20 -1 -49 -11 -65 -23 -26 -19 -30 -19 -52 -5 -18 12
-29 13 -52 5 -31 -12 -104 -4 -104 11 0 5 -11 2 -24 -6 -14 -9 -49 -19 -78
-22 -47 -5 -60 -2 -97 21 -23 15 -47 26 -53 24 -6 -2 9 -17 33 -32 68 -44 89
-67 89 -97 0 -25 -18 -37 -227 -156 -757 -430 -823 -466 -851 -460 -16 3 -80
38 -142 76 -115 71 -138 82 -124 59 6 -9 3 -9 -9 0 -9 8 -15 18 -14 24 2 11
-79 59 -87 51 -3 -4 -6 -1 -6 6 0 8 -8 10 -22 6 -18 -6 -21 -5 -11 5 9 10 -1
21 -50 53 -34 22 -68 40 -75 41 -7 2 -18 9 -23 17 -13 20 -11 5 3 -26 9 -20 9
-28 -2 -38 -10 -9 -11 -9 -6 0 7 13 -18 83 -30 83 -3 0 -3 -7 0 -16 3 -8 2
-12 -4 -9 -6 3 -10 15 -10 26 0 10 -6 19 -14 19 -8 0 -16 4 -18 8 -1 5 -29 25
-60 46 -32 21 -58 42 -58 47 0 5 15 31 33 59 20 31 39 49 53 49 11 1 29 8 40
16 16 12 17 16 5 24 -22 14 -20 49 3 65 24 15 76 18 76 5 0 -5 5 -9 11 -9 7 0
9 11 5 30 -5 28 -1 43 26 90 4 8 13 26 19 40 14 33 27 40 64 34 l30 -6 -25 14
c-27 15 -29 45 -4 64 8 6 14 16 14 23 0 16 52 14 78 -4 20 -15 21 -15 15 1 -4
12 -2 15 8 12 8 -3 13 -13 12 -23 -1 -11 2 -14 9 -7 12 12 57 1 90 -22 29 -20
52 -21 44 -1 -3 10 11 25 42 46 26 18 55 41 65 53 10 12 15 14 11 6 -8 -16 25
9 64 48 12 13 27 20 34 16 7 -4 8 -3 4 4 -4 7 -1 12 8 12 9 0 16 4 16 9 0 4
26 26 58 47 90 60 111 57 262 -47 69 -47 149 -102 177 -123 37 -26 58 -36 73
-31 25 8 25 26 0 93 -14 36 -20 76 -20 130 0 43 -7 102 -15 132 -17 62 -37
156 -60 275 -28 145 -75 292 -99 304 -13 7 -14 10 -3 7 9 -3 17 -3 17 -1 0 3
-16 71 -37 152 -20 82 -36 157 -36 168 0 11 -6 38 -14 61 -13 37 -13 45 5 97
11 31 32 72 47 91 15 20 24 40 19 47 -4 7 -3 9 4 5 6 -3 23 17 41 48 17 30 44
67 60 82 25 26 43 58 110 205 12 25 38 69 60 97 21 29 46 73 56 99 17 44 17
47 1 59 -16 11 -16 14 -1 45 25 47 45 175 40 257 -5 79 -32 170 -75 250 l-28
53 142 -2 c79 0 149 -5 157 -11 10 -7 6 -8 -14 -5 -35 6 -44 -12 -27 -53 10
-24 20 -30 63 -37 l52 -9 30 52 c17 28 44 72 60 97 17 25 35 53 41 63 10 18
14 16 45 -16 19 -19 48 -53 66 -75 31 -38 32 -39 23 -10 -16 47 -81 115 -112
117 -15 1 -29 9 -31 18 -3 13 -24 17 -122 19 -129 2 -135 0 -135 -55 0 -20 -6
-34 -16 -38 -9 -3 -72 -6 -141 -6 l-125 0 -72 44 c-80 50 -147 75 -221 83 -27
3 -55 10 -61 15 -18 13 -53 19 -117 19 l-58 1 3 126 3 127 33 3 c31 3 32 5 32
47 0 35 -3 43 -15 39 -8 -4 -15 -1 -15 5 0 6 -7 8 -16 4 -14 -5 -15 13 -13
163 1 94 6 175 12 182 5 6 20 12 33 12 22 0 24 4 24 43 0 23 3 93 7 155 l6
112 -96 0 -97 0 0 -77z m165 -1073 c3 -5 2 -10 -2 -10 -5 0 -10 -13 -11 -29
-2 -30 14 -41 80 -55 30 -7 94 -71 115 -114 7 -15 23 -44 36 -64 45 -75 77
-138 77 -150 0 -8 9 -30 20 -51 11 -20 18 -37 15 -37 -3 0 -1 -9 5 -19 11 -21
-12 -91 -30 -91 -6 0 -3 -11 6 -25 20 -30 13 -89 -20 -180 -17 -47 -20 -67
-12 -76 8 -9 8 -10 0 -6 -7 4 -19 -12 -29 -41 -25 -65 -53 -105 -92 -132 -19
-13 -32 -29 -29 -35 2 -7 -1 -18 -7 -24 -9 -9 -7 -10 7 -5 19 7 19 7 0 -22
-12 -16 -42 -69 -69 -119 -27 -49 -73 -130 -103 -180 -53 -86 -82 -145 -96
-191 -5 -17 -3 -22 11 -20 21 1 45 -55 25 -62 -6 -2 -10 -8 -6 -13 3 -5 0 -8
-7 -7 -7 2 -20 -19 -30 -46 -10 -26 -20 -50 -22 -53 -3 -2 -35 -6 -71 -8 -60
-3 -82 4 -56 20 17 10 1 25 -28 25 l-27 0 25 21 c14 11 20 18 14 15 -7 -3 -14
1 -17 9 -4 10 -1 12 11 9 15 -5 15 -4 -1 9 -14 11 -15 16 -5 20 8 4 7 6 -4 6
-15 1 -17 9 -12 58 3 32 10 63 16 71 13 15 12 127 -2 217 -5 33 -12 98 -15
144 -3 46 -7 87 -10 91 -2 4 -5 24 -7 46 -1 25 -12 52 -30 75 -43 53 -67 127
-84 257 -17 134 -13 181 27 299 15 46 31 105 35 131 10 71 19 89 80 158 76 86
142 119 224 111 71 -6 80 0 80 58 0 25 14 33 25 15z m513 -687 c5 -74 -74
-227 -125 -239 -43 -11 -78 7 -79 41 -1 17 4 39 11 50 18 28 51 65 59 65 12 0
6 -32 -9 -47 -22 -21 -15 -24 26 -10 31 11 34 15 25 30 -8 13 -8 20 3 26 8 5
12 18 9 29 -4 13 2 28 16 41 27 26 36 19 37 -28 l1 -36 7 30 c10 41 -4 68 -30
60 -19 -6 -20 -5 -9 15 7 14 19 20 33 18 18 -2 23 -11 25 -45z m-1733 -615
c17 -6 37 -17 46 -25 15 -12 22 -12 51 0 27 12 39 12 57 3 12 -7 18 -15 15
-19 -4 -4 -2 -7 3 -7 6 0 13 4 15 8 2 5 18 12 36 15 28 6 32 4 32 -14 0 -18
-3 -19 -15 -9 -8 6 -20 10 -27 7 -8 -3 -6 -6 5 -6 10 -1 16 -5 12 -10 -3 -5 4
-13 15 -16 33 -10 17 -29 -29 -36 -42 -5 -65 4 -36 15 8 3 15 13 15 22 0 14
-4 13 -20 -6 -11 -13 -23 -20 -27 -16 -5 4 0 12 10 17 9 6 15 15 12 20 -4 5
-11 7 -16 3 -5 -3 -8 0 -7 7 2 6 -6 12 -18 14 -12 1 -21 -3 -21 -9 0 -32 -4
-46 -13 -41 -6 4 -10 3 -9 -2 4 -20 -2 -24 -18 -12 -10 8 -14 9 -10 2 4 -6 3
-14 -2 -17 -5 -4 -13 -2 -16 4 -5 8 -11 7 -21 -1 -20 -16 -8 -28 22 -23 18 3
23 1 18 -7 -4 -8 -3 -9 4 -5 6 4 8 14 5 24 -3 9 -3 14 2 10 4 -4 14 -3 22 3 8
8 13 8 13 1 0 -6 -4 -12 -8 -14 -4 -1 -23 -24 -42 -50 -18 -27 -36 -46 -38
-43 -3 2 0 11 6 18 7 8 8 18 4 22 -4 5 -1 5 5 1 9 -5 11 -2 7 8 -3 9 -10 14
-14 11 -5 -3 -11 -1 -15 5 -4 6 -11 8 -16 5 -12 -8 1 26 19 47 8 10 19 15 23
12 5 -3 6 2 3 10 -7 19 7 21 26 4 12 -11 12 -10 0 7 -8 11 -16 22 -17 24 -2 2
-12 -6 -23 -20 -14 -15 -24 -19 -28 -13 -4 6 -20 18 -37 27 -16 9 -23 16 -15
17 13 0 13 1 0 10 -12 8 -10 10 8 10 13 0 21 -4 18 -9 -3 -4 3 -16 14 -26 18
-16 20 -16 35 -1 15 15 14 17 -19 31 -19 8 -40 15 -45 15 -5 0 -13 5 -17 12
-5 8 -2 9 12 4 10 -5 33 -13 49 -18z m625 -325 c0 8 144 -63 174 -86 15 -11
16 -16 6 -22 -9 -6 -11 -4 -5 5 5 9 4 11 -4 6 -9 -6 -9 -11 1 -24 8 -10 9 -13
1 -9 -6 4 -14 3 -18 -3 -3 -5 -1 -10 6 -10 7 0 10 -3 6 -6 -3 -3 -15 1 -27 9
-12 8 -17 18 -12 21 6 3 12 3 15 -1 2 -5 3 -3 1 3 -1 6 3 17 9 24 7 7 -3 3
-22 -10 -19 -13 -31 -18 -26 -10 6 10 4 12 -8 7 -19 -7 -30 16 -14 32 16 16
32 14 18 -3 -9 -10 -8 -15 3 -19 8 -3 20 2 28 11 12 16 11 16 -6 2 -18 -14
-19 -13 -13 2 5 14 -3 23 -34 39 -23 11 -38 16 -35 10 4 -7 1 -8 -8 -5 -9 3
-13 11 -9 18 4 6 -2 4 -12 -4 -17 -13 -18 -13 -13 1 4 9 1 16 -6 16 -10 0 -13
-19 -7 -46 1 -2 8 2 16 9 10 9 15 9 15 1 0 -21 -4 -26 -20 -23 -11 2 -10 -2 4
-13 11 -8 17 -17 14 -20 -3 -3 -16 4 -31 15 -34 27 -45 25 -39 -5 2 -14 9 -25
14 -25 5 0 6 6 3 13 -4 6 0 4 8 -6 11 -13 16 -15 20 -5 3 10 6 9 11 -3 4 -9 0
-33 -8 -53 -12 -28 -19 -34 -33 -29 -17 6 -17 5 1 -15 10 -12 21 -21 25 -20
17 2 31 -3 31 -11 0 -6 -12 -6 -30 0 -16 6 -30 15 -30 21 0 5 -4 6 -10 3 -15
-9 -12 21 3 34 8 6 17 8 20 4 4 -3 7 -2 7 4 0 6 -9 13 -19 16 -14 3 -18 1 -14
-10 4 -11 1 -14 -8 -11 -8 3 -13 15 -11 29 4 24 3 24 -12 4 -20 -26 -21 -11
-1 19 9 13 15 28 13 32 -3 14 13 54 22 54 5 0 12 -4 15 -10 3 -5 10 -10 16
-10 5 0 4 9 -3 19 -7 11 -14 19 -17 19 -16 -1 -22 3 -16 12 5 8 12 7 23 -2 13
-11 14 -11 4 8 -14 27 -2 41 15 18 7 -10 13 -15 13 -11z m-128 -336 c-12 -13
-19 -26 -15 -30 3 -4 -2 -16 -12 -27 -16 -18 -16 -20 -2 -20 24 0 21 -31 -3
-37 -11 -3 -20 -11 -20 -18 0 -8 -3 -21 -7 -31 -4 -12 -3 -15 5 -10 7 4 12 16
12 27 0 11 7 19 16 19 14 0 16 -9 12 -55 -3 -31 -1 -50 3 -43 6 8 9 1 9 -20 0
-32 -1 -33 -34 -29 -18 2 -42 9 -52 15 -15 8 -12 10 19 7 36 -3 37 -3 36 28
-1 30 -1 30 -8 7 -7 -27 -12 -28 -53 -16 -32 9 -35 18 -13 40 14 13 13 16 -6
27 -19 10 -21 9 -16 -5 7 -19 -13 -22 -31 -4 -9 9 -12 9 -12 -1 0 -7 9 -15 20
-18 11 -3 20 -7 20 -9 0 -11 -35 -74 -41 -74 -21 0 -59 21 -58 32 0 10 2 10 6
1 9 -24 20 -13 17 17 -3 28 -2 29 24 19 l27 -9 -24 19 c-18 14 -20 20 -10 23
9 4 4 10 -15 17 -16 6 -27 14 -24 17 3 2 18 0 33 -6 23 -9 26 -8 21 5 -4 10
-2 14 5 9 8 -4 9 1 4 15 -4 14 -2 23 9 27 8 3 12 13 9 22 -4 14 -3 14 5 3 6
-8 8 -19 6 -25 -3 -7 5 -12 17 -13 27 -2 31 -6 23 -27 -3 -9 -11 -13 -18 -10
-6 3 -2 -3 10 -13 11 -10 23 -25 27 -33 3 -9 6 -4 6 12 1 14 4 34 8 44 5 13 3
15 -8 10 -8 -4 -4 1 9 12 23 21 30 38 10 26 -13 -8 -3 12 20 39 8 9 11 17 7
17 -5 0 2 11 15 25 13 14 26 25 28 25 3 0 -4 -10 -16 -23z m2758 -1704 c0 -3
-6 -3 -14 0 -11 5 -13 0 -6 -24 15 -51 1 -99 -42 -137 -21 -19 -38 -41 -38
-48 0 -8 -5 -14 -11 -14 -6 0 -8 -9 -4 -20 4 -12 2 -20 -5 -20 -6 0 -9 4 -6 9
3 5 -1 11 -9 15 -8 3 -15 3 -15 1 0 -3 -10 -40 -21 -83 -12 -42 -27 -99 -34
-127 l-12 -50 -21 95 c-30 134 -41 208 -49 339 l-6 114 24 -6 c13 -3 56 -9 94
-13 39 -3 81 -11 95 -16 13 -5 21 -6 18 -2 -4 4 -3 15 3 26 10 19 11 18 35 -7
13 -14 24 -29 24 -32z m-8 -230 c20 -21 20 -21 -1 -28 -37 -11 -22 -20 28 -17
42 3 51 1 61 -17 6 -12 7 -21 1 -21 -5 0 -12 8 -14 18 -3 10 -5 6 -6 -11 -1
-18 -5 -26 -12 -21 -21 13 -27 -18 -7 -38 10 -10 16 -23 13 -27 -2 -5 3 -8 12
-7 10 0 18 -7 20 -19 2 -18 1 -18 -4 -1 -4 17 -7 16 -23 -8 l-17 -27 -13 30
c-7 17 -16 28 -21 25 -9 -5 -43 30 -45 46 -3 22 -6 24 -12 9 -6 -15 -9 -15
-24 0 -15 15 -16 20 -3 45 8 16 15 43 15 60 0 35 22 67 29 44 2 -7 12 -23 23
-35z m202 -195 c4 -15 9 -19 13 -11 5 6 8 -46 8 -115 0 -122 14 -266 22 -230
3 11 11 15 21 12 16 -5 16 -5 1 8 -13 10 -15 23 -10 53 l7 40 9 -50 c5 -27 9
-52 10 -55 0 -3 6 -14 13 -25 9 -14 15 -16 18 -7 14 32 23 5 19 -58 -2 -38 0
-72 4 -75 5 -2 5 -23 1 -44 -5 -27 -3 -42 4 -44 6 -2 8 -8 3 -12 -4 -5 -13 -3
-19 3 -18 18 -51 15 -44 -3 3 -8 3 -15 1 -15 -8 0 -45 78 -45 95 0 9 -13 28
-29 44 -16 16 -37 43 -46 61 -13 26 -19 29 -31 19 -11 -9 -14 -9 -15 2 0 8 -7
1 -14 -16 l-14 -30 -1 28 c0 15 -7 30 -15 33 -8 4 -15 11 -15 16 0 6 7 5 15
-2 9 -7 18 -10 22 -6 3 3 1 6 -6 6 -7 0 -9 5 -6 10 10 16 -21 11 -35 -5 -9
-11 -16 -12 -25 -5 -6 5 -15 7 -18 3 -4 -3 -7 1 -7 10 0 9 -5 17 -11 17 -5 0
-7 5 -3 11 4 8 0 9 -15 4 -17 -5 -21 -2 -22 17 -1 13 -1 26 0 31 0 4 -3 7 -9
7 -6 0 -10 -7 -10 -15 0 -8 -4 -15 -10 -15 -13 0 -13 6 1 32 6 12 7 18 1 14
-5 -3 -13 6 -16 19 -7 28 -23 25 -36 -9 l-9 -21 0 23 c-1 12 2 22 7 22 4 0 16
16 26 35 16 29 21 33 34 22 13 -10 15 -9 8 3 -4 9 -2 8 7 -2 8 -10 18 -14 22
-10 5 4 5 2 1 -5 -4 -7 3 -22 14 -33 11 -11 18 -25 15 -30 -5 -9 9 -14 19 -7
2 1 13 -6 23 -16 11 -9 23 -14 28 -10 4 5 5 2 1 -4 -4 -7 -2 -13 3 -13 6 0 11
-5 11 -11 0 -6 6 -17 14 -25 11 -11 16 -11 20 -1 3 7 8 2 12 -11 5 -17 9 -20
15 -11 6 10 11 7 18 -11 5 -14 10 -20 10 -13 1 18 31 4 31 -15 0 -8 2 -13 5
-10 9 9 -6 58 -16 52 -5 -3 -9 10 -8 28 0 18 3 27 6 21 2 -7 10 -13 17 -13 7
0 11 15 9 43 -1 23 -2 72 -2 108 -1 50 -5 68 -16 73 -8 3 -15 12 -15 20 0 15
-16 16 -39 2 -9 -6 -7 1 5 17 10 15 24 25 30 23 7 -3 10 7 8 25 -4 34 11 39
20 7z m506 -56 c0 -9 7 -26 15 -36 8 -11 15 -33 15 -48 0 -35 39 -96 81 -127
35 -26 51 -21 24 9 -10 11 -15 23 -12 27 4 3 7 1 7 -5 0 -6 9 -14 20 -17 11
-4 17 -11 14 -17 -4 -6 0 -14 7 -19 23 -14 32 -10 18 8 -12 14 -9 13 21 -3 19
-10 38 -18 42 -19 3 0 10 -3 14 -7 4 -5 17 -8 28 -8 12 0 30 -10 40 -21 13
-15 20 -18 25 -10 5 8 23 10 52 6 70 -9 280 -6 324 5 58 14 74 13 50 -4 -17
-11 -48 -19 -112 -28 -7 -1 -13 -5 -13 -10 0 -6 16 -8 35 -5 19 3 33 1 30 -3
-3 -5 -1 -11 5 -15 5 -3 10 -2 10 3 0 5 12 10 27 10 26 -1 26 -1 -8 -19 -29
-15 -36 -16 -45 -3 -6 8 -17 14 -25 14 -15 0 30 -34 46 -35 5 -1 18 -5 27 -9
22 -10 13 -27 -10 -20 -11 4 -10 1 4 -8 12 -7 19 -18 17 -25 -2 -6 0 -14 6
-17 5 -3 7 -15 4 -26 -5 -17 -2 -18 26 -10 24 7 31 6 31 -6 0 -9 -10 -14 -28
-14 -15 0 -34 -6 -41 -12 -8 -7 -11 -8 -8 -3 6 12 -32 13 -51 1 -6 -4 -21 -2
-33 5 -16 8 -20 8 -14 -1 6 -9 3 -9 -13 -1 -11 6 -28 11 -36 11 -22 0 -9 -25
20 -39 18 -8 23 -8 18 0 -5 8 -1 8 14 0 26 -14 45 -14 37 -1 -3 6 -4 10 0 10
3 0 10 -10 15 -22 l9 -23 0 22 c1 12 5 25 11 28 6 4 7 -1 3 -12 -5 -15 -4 -16
8 -7 16 13 51 15 43 3 -2 -4 4 -9 15 -11 16 -2 17 -5 6 -15 -11 -10 -17 -10
-29 3 -14 14 -20 12 -18 -7 1 -8 -37 -5 -65 5 -12 4 -30 3 -40 -2 -10 -5 -29
-6 -43 -2 -14 4 -37 3 -52 -1 -20 -5 -32 -3 -43 7 -8 9 -15 11 -15 6 0 -16
-30 -23 -51 -12 -10 6 -19 7 -19 2 0 -10 -62 -8 -79 2 -6 4 -18 3 -25 -3 -7
-6 -16 -8 -19 -4 -4 3 -7 2 -7 -3 0 -16 -83 -11 -98 6 -12 13 -13 13 -8 -2 3
-12 -1 -16 -14 -15 -10 1 -16 5 -14 9 3 4 -2 8 -10 8 -8 0 -18 -5 -22 -11 -4
-8 -12 -3 -20 12 -13 23 -15 23 -18 -3 -2 -23 -50 -16 -75 11 -16 18 -22 21
-17 8 3 -11 2 -16 -4 -12 -6 3 -10 2 -10 -3 0 -6 -7 -12 -15 -16 -8 -3 -14 0
-12 7 1 7 -4 11 -11 9 -9 -2 -11 4 -7 18 4 14 2 20 -9 20 -9 0 -15 -7 -13 -17
1 -10 -1 -18 -4 -18 -3 0 -13 -6 -22 -14 -15 -12 -17 -11 -17 3 0 9 -4 16 -10
16 -5 0 -10 -7 -10 -16 0 -8 -4 -13 -9 -9 -15 9 -9 46 7 40 8 -3 12 0 9 7 -2
7 -11 12 -20 12 -9 -1 -14 3 -10 9 4 6 1 7 -6 3 -7 -5 -10 -15 -7 -23 3 -8 2
-11 -3 -8 -5 3 -14 20 -20 38 -12 34 -36 45 -45 20 -3 -7 -9 -13 -14 -13 -15
0 -52 36 -52 51 0 10 3 10 12 1 7 -7 16 -12 20 -12 10 0 11 60 1 61 -5 0 -16
2 -26 4 -10 2 -17 -2 -16 -8 4 -35 -2 -87 -11 -87 -6 0 -11 34 -12 78 l-2 77
-6 -75 c-6 -66 -10 -81 -14 -51 0 5 -4 12 -8 16 -4 4 -4 14 -1 22 5 14 9 35
12 76 1 20 51 25 51 5 0 -10 3 -9 9 1 5 7 14 10 20 7 6 -4 24 -10 39 -12 15
-3 37 -12 50 -20 12 -8 22 -10 22 -5 0 6 8 8 18 4 13 -5 12 -1 -5 19 -27 29
-28 36 -6 40 15 3 15 4 -1 21 -10 10 -16 20 -14 22 7 7 58 -53 58 -67 0 -10
-2 -10 -9 0 -7 11 -9 11 -13 0 -8 -19 23 -54 44 -50 9 2 19 -2 23 -7 10 -17
25 -13 26 7 0 13 2 12 9 -5 7 -16 18 -23 38 -23 40 0 45 10 19 34 -12 12 -24
24 -25 29 -2 8 -6 9 -29 0 -9 -4 -19 -1 -21 5 -2 7 -8 10 -13 6 -13 -8 -11 10
4 25 8 10 9 12 0 7 -7 -4 -17 3 -23 15 -11 19 -10 20 9 14 15 -4 21 -3 19 7
-6 30 -48 39 -48 11 -1 -13 -5 -11 -15 8 -8 15 -22 29 -31 33 -9 3 -14 13 -10
21 3 8 1 17 -4 20 -6 4 -10 19 -10 35 0 15 -7 30 -15 34 -8 3 -15 1 -15 -4 0
-6 5 -10 10 -10 6 0 10 -7 10 -15 0 -10 -7 -15 -17 -13 -14 2 -18 -4 -17 -29
0 -22 -3 -30 -13 -26 -7 3 -13 -1 -13 -8 0 -7 -3 -9 -7 -6 -3 4 -6 31 -4 60 1
28 -3 67 -8 85 -5 17 -6 32 -1 32 4 0 10 -8 13 -19 5 -19 63 -35 73 -20 4 7
-14 24 -28 24 -12 0 -22 15 -10 15 7 0 12 14 12 30 0 17 5 30 10 30 6 0 10 -5
10 -11 0 -7 9 -9 21 -6 12 3 22 0 26 -9 3 -8 19 -14 39 -14 19 0 34 -4 34 -10
0 -5 -7 -10 -15 -10 -8 0 -15 -9 -15 -20 0 -25 -27 -17 -56 17 l-22 25 5 -26
c3 -14 8 -26 12 -26 4 0 16 -6 26 -14 16 -12 17 -16 6 -30 -7 -9 -9 -16 -4
-16 5 0 15 12 21 26 9 19 17 24 32 19 17 -5 20 -2 20 23 0 16 7 35 15 42 8 7
15 23 15 37 0 27 20 22 20 -5z m-850 -284 c0 -5 4 -7 9 -4 5 3 11 -5 13 -19 3
-13 2 -22 -3 -20 -10 7 -17 -16 -11 -37 2 -10 13 -18 23 -18 14 0 19 -7 20
-27 0 -23 2 -25 8 -9 7 17 11 15 48 -20 23 -21 45 -40 49 -41 5 -2 26 -14 47
-28 22 -14 42 -25 46 -25 4 0 32 -24 63 -52 44 -42 55 -58 52 -78 -3 -18 -2
-21 5 -10 5 8 7 18 5 22 -3 4 0 8 6 8 6 0 10 -6 9 -12 -1 -7 -1 -20 0 -28 1
-13 2 -13 11 0 11 17 13 6 4 -27 -5 -17 -9 -19 -19 -10 -7 7 -10 17 -7 22 3 6
-1 4 -10 -3 -14 -11 -18 -9 -26 15 -6 15 -11 22 -11 16 -1 -7 -6 -13 -12 -13
-5 0 -7 5 -4 10 3 6 -1 10 -10 10 -9 0 -14 3 -11 8 2 4 -2 16 -10 27 -8 10
-14 13 -14 6 0 -7 -5 -9 -10 -6 -6 4 -7 11 -4 17 5 7 1 9 -9 5 -12 -4 -15 -2
-11 11 4 11 -2 8 -16 -8 -12 -14 -19 -20 -16 -13 6 12 -10 28 -29 28 -5 0 -11
10 -13 23 -2 12 -7 20 -12 17 -5 -3 -18 4 -29 16 -11 12 -25 19 -33 16 -18 -6
-84 28 -92 48 -3 10 -11 13 -18 9 -9 -5 -8 -2 1 10 11 13 16 14 22 4 5 -7 9
-8 9 -2 0 11 -37 54 -47 54 -3 0 2 -9 12 -20 10 -11 13 -20 7 -20 -6 0 -14 5
-18 11 -4 8 -9 7 -16 -2 -7 -10 -8 -9 -4 5 4 10 1 25 -5 32 -6 8 -8 14 -3 14
4 0 -1 6 -11 14 -16 11 -17 18 -8 37 7 13 12 18 12 11 1 -7 5 -11 10 -8 5 3
15 -2 22 -11 12 -15 12 -16 -1 -8 -22 14 -37 14 -37 1 0 -12 61 -15 73 -4 3 4
0 14 -9 22 -8 8 -17 12 -21 9 -8 -8 -8 11 0 31 6 15 34 11 34 -6z m25 -258 c8
0 15 -7 15 -15 0 -8 3 -14 8 -14 38 6 86 -32 89 -71 1 -14 -1 -19 -4 -12 -3 8
-9 10 -16 4 -7 -5 -25 -14 -42 -21 -18 -7 -21 -10 -8 -7 13 2 26 -1 30 -6 4
-7 11 -4 20 7 7 11 13 15 13 11 0 -5 7 -3 15 4 11 9 15 9 15 1 0 -7 5 -9 10
-6 6 3 10 -1 10 -9 0 -8 -4 -18 -10 -21 -5 -3 -10 -1 -10 6 0 8 -3 9 -13 0 -8
-6 -18 -7 -22 -3 -5 4 -5 1 -1 -5 10 -19 46 -16 63 5 13 16 14 15 10 -5 -4
-17 2 -26 24 -37 17 -8 31 -10 35 -5 3 5 -2 12 -10 15 -9 3 -13 10 -10 16 4 5
15 1 28 -11 11 -11 26 -20 31 -21 34 -3 185 -113 173 -125 -7 -7 -99 15 -115
28 -7 5 -13 6 -13 2 0 -4 -7 -2 -15 5 -8 7 -15 10 -15 7 0 -3 -16 1 -35 9 -19
8 -38 15 -42 15 -5 1 -19 6 -33 11 -14 5 -38 12 -53 15 -16 3 -31 13 -35 21
-4 11 -10 3 -19 -24 -7 -22 -10 -27 -7 -11 3 21 1 27 -7 21 -7 -4 -9 -3 -6 3
4 6 -3 19 -15 29 -12 11 -18 13 -14 6 7 -11 4 -12 -13 -3 -11 7 -21 17 -21 23
0 6 -13 24 -30 40 -32 30 -41 50 -13 27 15 -12 16 -12 10 4 -7 20 3 23 21 5 7
-7 12 -8 12 -2 0 5 -9 15 -21 22 -12 8 -18 19 -15 28 3 9 2 12 -5 9 -5 -4 -17
-4 -25 -1 -12 5 -13 10 -3 28 12 22 11 22 -7 9 -19 -15 -19 -14 0 5 13 13 20
15 23 7 3 -10 9 -9 20 3 15 14 17 14 25 0 5 -9 16 -16 23 -16z m1313 -90 c8
-8 11 -9 7 -2 -3 6 -2 12 4 12 5 0 16 -6 23 -12 7 -7 31 -13 53 -12 22 1 44
-1 50 -4 5 -3 22 -7 39 -9 16 -2 34 -7 40 -11 16 -13 99 -14 116 -2 13 8 13
10 -1 10 -9 0 -19 7 -23 15 -4 11 1 15 17 15 15 0 18 3 9 8 -8 6 -2 9 18 9 25
0 30 -4 30 -25 0 -17 -4 -23 -15 -18 -9 3 -15 0 -15 -9 0 -8 -7 -15 -16 -15
-14 0 -14 -3 -4 -15 10 -12 10 -15 -3 -15 -9 0 -27 4 -41 10 -16 6 -26 6 -26
0 0 -5 -9 -7 -20 -5 -12 2 -18 0 -15 -6 4 -5 11 -7 16 -4 5 4 9 -1 9 -9 0 -9
-6 -16 -13 -16 -8 0 -13 -10 -13 -21 1 -29 -16 -33 -42 -11 -27 24 -29 36 -3
22 14 -7 22 -7 27 2 4 6 3 8 -4 4 -6 -3 -17 3 -25 14 -7 11 -16 18 -19 15 -3
-3 -11 2 -19 12 -9 11 -10 14 -1 9 6 -4 12 -2 12 4 0 6 -6 10 -12 9 -7 -1 -21
1 -31 6 -11 4 -23 3 -29 -3 -7 -7 -5 -10 8 -8 11 2 22 -2 26 -8 10 -14 10 -28
1 -23 -28 16 -251 22 -408 11 -97 -7 -109 -10 -99 -26 4 -6 10 -5 15 3 5 8 9
10 9 4 0 -5 13 -10 29 -10 16 0 27 4 24 9 -4 5 0 5 8 0 21 -13 39 -14 39 -1 0
6 6 3 13 -7 11 -15 15 -16 19 -5 3 9 18 14 34 13 57 -2 79 -6 67 -11 -7 -2
-13 -10 -13 -16 1 -7 8 -3 18 8 23 27 62 32 62 8 0 -15 2 -16 10 -3 12 20 133
22 125 2 -3 -9 0 -10 13 -3 31 16 72 11 72 -10 0 -25 -16 -32 -41 -17 -18 11
-22 11 -27 -1 -3 -10 -6 -11 -12 -1 -5 7 -22 13 -39 12 -17 0 -31 4 -31 11 0
6 -6 2 -14 -8 -8 -11 -12 -23 -10 -26 2 -4 -23 -7 -56 -7 -33 1 -57 5 -54 9 3
5 1 9 -4 9 -6 0 -12 -7 -16 -15 -4 -11 2 -15 22 -16 15 -1 62 -2 105 -4 43 -1
81 -6 85 -10 8 -9 -269 1 -308 10 -14 4 -31 7 -38 7 -7 1 -10 9 -6 20 5 17 -4
22 -33 19 -6 -1 -14 3 -18 8 -4 7 -15 7 -32 0 -16 -6 -30 -6 -37 0 -7 6 -22 8
-34 4 -12 -3 -22 -1 -22 5 0 6 -16 8 -39 5 -22 -3 -41 -1 -45 5 -4 6 -14 9
-24 6 -14 -5 -14 -4 -2 4 8 6 18 8 24 5 9 -6 5 15 -9 49 -5 14 1 16 44 15 28
-1 51 2 51 6 0 5 6 5 13 0 17 -11 30 -11 46 1 11 8 13 8 7 -1 -5 -9 4 -12 34
-10 22 1 40 5 40 8 0 3 7 6 15 6 8 0 12 -4 10 -8 -3 -3 4 -9 15 -12 11 -3 22
-1 25 4 3 4 13 5 22 2 10 -4 14 -2 9 5 -4 6 1 11 11 11 24 0 107 9 111 11 7 7
28 4 37 -5 6 -6 9 -8 8 -6 -2 2 2 10 7 16 14 16 42 14 58 -5z"/>
<path d="M4767 4404 c60 -56 89 -68 170 -69 64 0 74 3 88 23 9 12 20 20 25 17
5 -3 11 -1 15 5 4 6 -11 9 -37 8 -66 -1 -217 21 -249 37 -47 25 -51 17 -12
-21z"/>
<path d="M7960 6622 c0 -44 2 -48 26 -50 15 -1 33 3 41 9 11 10 12 -16 8 -162
-3 -96 -8 -191 -11 -211 -5 -36 -8 -38 -44 -38 -34 0 -38 -3 -44 -31 -10 -50
-7 -87 7 -93 20 -8 -17 -31 -91 -56 -37 -12 -96 -42 -132 -66 -63 -41 -163
-134 -146 -134 5 0 -13 -21 -40 -47 -27 -27 -82 -89 -122 -139 -69 -86 -73
-90 -107 -86 -25 3 -35 0 -35 -9 -1 -8 -16 29 -33 81 -52 150 -84 205 -167
289 -41 41 -68 71 -60 66 13 -7 13 -6 2 7 -17 22 -32 77 -23 83 14 8 7 108 -6
112 -10 4 -13 -17 -13 -81 l0 -86 -49 0 c-29 0 -53 6 -60 14 -7 8 -20 12 -29
9 -10 -2 -27 6 -40 20 -21 22 -25 23 -99 15 -161 -18 -365 -99 -460 -182 -26
-22 -44 -35 -39 -28 6 9 -26 12 -146 12 -84 0 -163 -3 -175 -6 -22 -6 -23 -12
-23 -95 l0 -88 33 -4 c31 -4 31 -4 -5 -5 -65 -3 -42 -20 37 -27 77 -8 125 -2
125 15 0 6 -18 10 -40 10 -22 0 -40 5 -40 10 0 6 14 10 30 10 17 0 43 7 58 16
25 15 25 15 8 0 -17 -14 -18 -16 -3 -16 9 0 19 0 22 0 3 0 5 3 4 7 0 3 6 10
15 15 9 5 14 13 11 18 -3 4 2 11 11 14 8 3 13 2 11 -2 -2 -4 -14 -29 -26 -56
-20 -44 -21 -50 -7 -58 9 -5 14 -13 11 -19 -4 -5 -2 -9 4 -9 5 0 25 26 45 58
36 59 114 141 153 161 12 6 31 11 42 11 25 0 61 -29 61 -50 0 -8 14 -31 30
-50 17 -19 33 -43 36 -53 3 -9 9 -15 13 -13 4 3 15 -11 26 -30 19 -35 42 -48
31 -16 -4 10 2 7 14 -8 11 -14 20 -30 20 -37 0 -7 11 -37 25 -67 14 -30 25
-58 25 -63 0 -4 9 -21 20 -38 l21 -30 -7 30 c-13 56 4 20 20 -44 17 -66 14
-95 -4 -46 -6 15 -21 40 -33 55 -12 15 -27 35 -32 45 -10 16 -11 16 -11 -3 0
-11 3 -19 7 -16 8 4 18 -19 25 -55 4 -19 3 -21 -9 -10 -17 18 -28 46 -33 89
-6 42 -16 54 -41 46 -15 -5 -19 -13 -15 -39 2 -17 9 -38 14 -44 7 -9 7 -13 -1
-13 -6 0 -14 7 -17 15 -11 29 -23 15 -13 -15 6 -16 15 -30 19 -30 13 0 21 -50
11 -68 -6 -9 -11 -12 -11 -5 0 17 -107 75 -132 71 -21 -3 -21 -4 7 -22 17 -11
41 -19 55 -18 20 1 22 0 10 -9 -13 -9 -13 -10 0 -6 18 5 99 -69 112 -103 6
-16 12 -20 17 -12 4 8 15 -5 29 -36 20 -44 20 -45 2 -23 l-20 23 0 -25 c0 -23
-28 -76 -60 -114 -5 -7 -10 -16 -10 -22 0 -5 -16 -24 -35 -42 -29 -28 -35 -40
-35 -76 0 -32 5 -46 22 -57 21 -15 21 -16 -23 -35 -43 -19 -109 -32 -243 -46
-34 -4 -55 -10 -49 -16 12 -12 81 -12 173 -1 41 5 81 7 88 4 22 -8 13 -37 -28
-94 -22 -31 -45 -69 -50 -84 -10 -26 -10 -27 7 -13 27 24 47 34 39 21 -4 -8
-2 -10 8 -6 8 3 19 19 25 35 5 16 24 49 41 74 17 25 27 45 23 45 -4 0 17 17
47 39 45 33 58 37 77 28 12 -5 25 -22 28 -36 5 -26 46 -81 59 -81 3 0 6 6 6
14 0 8 5 18 11 22 8 5 10 -1 7 -20 -7 -38 -2 -32 22 21 18 42 20 55 11 110 -5
34 -17 77 -25 95 -23 48 -55 168 -46 173 8 5 26 -49 36 -110 l7 -40 10 29 c6
18 6 36 1 45 -5 9 -7 36 -3 61 4 31 6 36 7 16 4 -59 19 3 21 82 1 12 5 22 11
22 5 0 7 -26 3 -65 -5 -56 -4 -65 11 -65 12 0 16 -10 16 -42 0 -54 16 -38 19
20 1 6 5 12 9 12 5 0 6 -21 2 -47 -5 -27 -5 -52 -2 -58 4 -5 5 -50 4 -100 -1
-49 2 -103 7 -120 l9 -30 1 38 c1 28 4 36 14 31 9 -6 9 -5 1 7 -9 10 -9 30 -3
69 5 30 9 90 10 133 0 42 5 77 10 77 5 0 9 21 8 48 0 35 -3 42 -9 27 -6 -15
-9 -8 -9 28 -1 32 3 46 12 45 13 -3 13 7 2 66 -6 28 -5 37 4 32 7 -5 11 3 11
23 0 16 -5 33 -10 36 -6 4 -8 10 -5 15 3 5 3 21 -1 35 -5 19 -9 23 -15 14 -4
-7 -5 -18 -1 -23 3 -6 7 -29 8 -51 1 -22 0 -32 -3 -22 -2 10 -11 16 -18 13 -9
-3 -15 8 -20 37 -3 23 -16 74 -27 112 -12 39 -22 93 -24 120 -1 28 -14 95 -28
149 -14 55 -25 101 -23 102 1 2 13 -24 26 -56 13 -33 28 -57 34 -53 6 3 7 1 4
-5 -8 -12 2 -44 12 -38 4 3 16 -17 26 -45 11 -27 23 -49 28 -49 4 0 4 8 -1 18
-5 9 -12 33 -15 52 -7 35 -7 35 9 10 l15 -25 -7 25 c-4 14 -6 31 -5 38 4 30 4
49 -3 77 -5 24 -2 20 16 -15 13 -25 26 -46 30 -48 4 -2 4 -11 1 -20 -3 -9 -3
-14 2 -10 4 4 14 0 22 -10 7 -9 -3 16 -23 56 -19 41 -33 76 -31 79 3 2 8 -5
12 -17 4 -13 12 -19 21 -16 16 6 73 -103 113 -217 37 -102 19 -90 -33 22 -21
43 -32 34 -16 -14 9 -27 9 -39 0 -50 -11 -14 -10 -45 4 -110 5 -20 -5 -8 -26
33 -19 35 -37 60 -41 56 -4 -4 -3 -12 2 -18 5 -6 11 -31 14 -56 3 -25 4 -37 1
-27 -3 9 -10 15 -15 12 -5 -3 -6 0 -3 8 3 8 -1 14 -10 14 -12 0 -11 -8 4 -48
10 -26 17 -49 14 -52 -3 -3 0 -14 7 -25 10 -15 9 -25 -5 -52 -18 -36 -21 -54
-6 -30 7 11 10 5 10 -23 0 -21 5 -48 11 -60 7 -11 12 -46 13 -76 1 -31 5 -62
10 -70 6 -10 6 -12 -2 -7 -8 5 -12 -5 -12 -30 0 -36 1 -37 16 -18 15 18 15 18
9 -3 -4 -16 -2 -23 8 -23 10 0 13 -9 11 -27 -4 -28 -4 -28 5 -3 5 14 10 43 11
65 2 38 2 38 18 -25 14 -54 17 -61 23 -40 12 43 16 -68 7 -182 -6 -66 5 -76
20 -20 9 31 11 18 9 -75 -1 -61 1 -106 4 -101 4 6 14 8 22 5 12 -5 14 -15 10
-44 -6 -34 -5 -37 10 -25 15 13 42 8 33 -6 -2 -4 6 -8 19 -8 14 -1 51 22 101
62 43 35 82 64 87 64 4 0 5 5 2 10 -7 12 15 13 32 2 8 -5 9 -13 3 -22 -6 -8
-10 -29 -10 -47 0 -17 -10 -48 -21 -68 -19 -32 -21 -45 -15 -108 4 -40 12 -97
19 -127 l13 -55 16 30 c28 54 30 93 7 125 -15 20 -21 42 -21 74 1 42 31 131
56 166 39 54 38 57 -15 62 -59 6 -126 48 -148 92 -11 23 -11 45 -2 118 9 68 9
104 0 149 -11 55 -8 243 3 255 3 2 29 -7 59 -21 77 -35 101 -33 142 15 50 58
87 50 87 -20 0 -60 18 -106 53 -133 46 -34 104 -63 169 -82 67 -19 85 -13 113
39 15 28 24 35 40 30 52 -16 56 -39 20 -102 -13 -23 -27 -61 -30 -85 -7 -45
-56 -119 -107 -162 -45 -38 -84 -56 -163 -77 l-70 -18 85 5 c50 2 111 13 148
26 35 12 65 19 67 17 2 -2 8 -29 13 -60 10 -67 33 -105 70 -120 15 -5 34 -14
42 -19 18 -11 81 -39 86 -39 2 0 4 10 4 23 0 12 12 39 26 60 50 74 227 132
286 93 13 -9 27 -13 31 -10 3 3 4 -13 3 -35 -3 -39 0 -45 45 -85 46 -42 50
-43 101 -38 29 2 55 6 57 8 7 6 18 83 13 89 -3 3 -6 25 -7 49 -1 55 -66 188
-103 212 -15 9 -41 27 -59 40 l-32 24 41 61 c103 154 142 275 159 499 6 80 12
146 13 146 0 1 208 7 461 13 253 6 542 14 643 17 l182 6 0 37 0 37 -137 -3
c-76 -2 -268 -7 -428 -13 -159 -5 -389 -11 -510 -12 l-220 -3 -5 30 c-5 28
-16 53 -67 142 -28 50 -125 146 -198 197 -74 52 -97 63 -152 70 -47 7 -63 11
-87 21 -10 4 -31 9 -47 10 -16 1 -41 2 -55 3 -40 3 -17 22 27 22 30 0 39 4 39
18 0 9 3 34 6 55 l7 37 -37 0 c-35 0 -36 -1 -36 -37 0 -21 -5 -45 -11 -53 -10
-15 -6 264 7 417 l6 71 47 -1 46 -2 3 48 3 47 -120 0 -121 0 0 -48z m-70 -762
c0 -6 -11 -15 -25 -20 -21 -8 -25 -16 -25 -49 0 -36 8 -47 95 -136 52 -53 95
-101 95 -106 0 -5 7 -9 15 -9 8 0 15 -5 15 -11 0 -6 -7 -8 -15 -5 -14 5 -14 4
0 -16 8 -13 15 -29 15 -38 0 -8 21 -46 45 -84 25 -38 45 -76 45 -84 0 -8 6
-12 14 -9 10 4 13 1 9 -9 -3 -7 -11 -14 -18 -14 -10 0 -13 -12 -11 -40 2 -22
0 -40 -4 -40 -4 0 -8 -6 -7 -12 1 -32 -4 -49 -12 -44 -5 3 -11 -2 -14 -13 -6
-24 -117 -46 -117 -22 0 5 -11 11 -25 13 -13 3 -22 1 -19 -3 9 -14 -6 -10 -34
9 -33 23 -214 112 -227 112 -25 0 -86 22 -100 36 -8 9 -21 17 -28 18 -23 4
-107 70 -113 89 -5 16 -8 17 -15 6 -6 -9 -7 -1 -3 21 9 48 17 54 50 36 16 -8
25 -15 20 -16 -6 0 7 -16 29 -35 41 -38 62 -40 28 -2 -11 12 -33 37 -48 55
-16 17 -35 32 -43 32 -8 0 -12 6 -9 14 44 114 74 170 119 220 63 72 113 104
180 116 29 6 68 19 87 29 44 22 51 24 51 11z m-605 -470 c-3 -5 -1 -10 5 -10
7 0 5 -7 -4 -16 -10 -9 -16 -32 -16 -57 0 -27 3 -37 9 -29 7 11 9 11 14 -1 3
-8 1 -19 -5 -25 -6 -6 -6 -12 3 -17 8 -6 10 -4 4 5 -5 9 -4 11 3 6 7 -4 12
-13 12 -20 0 -7 8 -21 19 -30 18 -16 19 -15 25 20 4 20 17 56 29 80 21 43 36
51 45 24 3 -9 -1 -11 -12 -7 -26 10 -19 2 24 -28 24 -16 47 -25 59 -22 31 8
34 -22 8 -72 -21 -43 -26 -46 -66 -49 -26 -2 -41 1 -37 6 7 12 -22 24 -36 15
-7 -4 -8 -1 -3 7 6 10 4 12 -8 7 -10 -4 -32 9 -62 35 l-47 42 6 54 c6 51 20
92 32 92 3 0 2 -4 -1 -10z m430 -220 c-16 -26 164 -112 190 -90 9 7 16 6 25
-5 15 -18 1 -79 -28 -123 -14 -21 -21 -23 -56 -18 -91 15 -217 92 -215 133 0
16 1 16 9 -2 7 -17 9 -16 9 11 1 16 -4 35 -10 41 -13 13 -3 36 12 28 5 -4 9 0
9 8 0 8 10 19 23 24 23 11 41 7 32 -7z"/>
<path d="M8720 4216 c0 -18 -9 -30 -30 -41 -21 -11 -30 -23 -30 -40 0 -14 4
-24 9 -22 5 1 23 -25 41 -58 25 -48 30 -67 26 -99 -3 -21 -8 -41 -10 -43 -7
-8 -86 90 -86 108 0 19 -17 35 -27 25 -9 -9 23 -73 56 -116 58 -73 70 -119 38
-147 -11 -10 -17 -12 -13 -5 6 10 3 13 -10 10 -14 -3 -44 21 -106 86 -47 50
-89 89 -92 85 -3 -3 24 -40 59 -82 41 -49 65 -87 65 -102 0 -14 4 -25 10 -25
15 0 42 -47 46 -80 2 -17 0 -30 -4 -30 -5 0 -9 -18 -10 -40 -2 -35 0 -40 22
-46 36 -9 49 3 42 39 l-6 31 32 -30 c42 -40 64 -47 82 -28 13 13 12 23 -11 88
-21 61 -24 82 -19 130 6 48 11 59 32 66 13 5 24 12 24 15 0 28 -24 160 -37
200 -19 59 -68 161 -83 170 -6 4 -10 -4 -10 -19z"/>
<path d="M6806 3614 c-10 -27 -39 -87 -65 -134 -40 -74 -126 -299 -117 -307 2
-2 18 36 35 84 35 96 80 187 80 163 1 -8 -8 -68 -18 -132 -10 -65 -15 -118
-11 -118 4 0 13 37 19 83 21 138 31 185 47 197 11 10 14 9 14 -4 0 -9 5 -16
11 -16 7 0 8 16 3 45 -7 47 10 110 27 99 11 -6 11 43 0 70 -6 15 -11 9 -25
-30z"/>
<path d="M1943 3186 c-12 -40 -6 -161 17 -334 9 -66 14 -78 59 -132 27 -32 54
-75 61 -94 6 -20 14 -36 17 -36 3 0 16 9 30 20 14 11 32 20 39 20 25 0 14 30
-17 49 -25 15 -36 17 -50 8 -14 -9 -22 -7 -40 8 -32 30 -59 89 -59 132 0 21
-7 79 -15 128 -8 50 -15 117 -16 150 -1 33 -4 73 -8 90 l-6 30 -12 -39z"/>
<path d="M6954 3003 l13 -38 -48 3 c-31 3 -49 0 -49 -7 0 -6 14 -11 30 -11 19
0 30 -5 30 -14 0 -8 7 -16 14 -19 23 -9 49 -67 51 -115 2 -24 8 -49 14 -55 22
-22 5 -167 -25 -214 -8 -12 -14 -29 -14 -36 0 -8 -18 -22 -40 -32 -22 -10 -39
-20 -37 -21 2 -2 42 8 89 23 l87 26 -6 156 c-5 129 -9 161 -24 182 -10 15 -23
39 -29 55 l-11 28 21 -19 21 -19 -7 29 c-3 17 -14 39 -24 50 -9 11 -25 35 -36
53 -25 43 -36 41 -20 -5z"/>
<path d="M6856 2921 c-15 -24 -46 -126 -46 -151 0 -15 -9 -35 -19 -44 -22 -20
-181 -49 -181 -33 0 5 -8 3 -17 -4 -11 -9 -14 -10 -10 -2 5 8 -2 15 -20 19
-15 3 -32 7 -38 8 -5 2 -16 -4 -23 -13 -11 -15 -13 -14 -23 2 -5 9 -17 17 -26
17 -13 0 -12 -5 6 -24 30 -32 67 -41 87 -21 18 18 31 20 16 2 -7 -8 -6 -17 3
-30 7 -10 15 -14 16 -9 2 5 27 12 56 15 51 6 52 5 88 -34 l36 -40 31 26 c17
14 48 35 69 46 22 11 39 25 40 32 0 6 2 26 4 42 2 17 4 59 5 94 1 56 -3 68
-23 89 -16 15 -27 20 -31 13z"/>
<path d="M3685 2784 c3 -20 8 -40 11 -45 14 -23 12 -55 -4 -72 -15 -18 -13
-18 27 3 46 23 181 118 181 127 0 3 -12 2 -26 -1 -21 -6 -25 -4 -21 8 6 14 -6
16 -84 16 l-90 0 6 -36z"/>
<path d="M2210 2607 c0 -4 36 -49 81 -100 44 -51 94 -117 110 -147 17 -30 39
-71 49 -90 29 -54 100 -313 93 -341 -3 -13 -16 -53 -30 -87 -13 -35 -22 -67
-18 -70 15 -16 56 62 85 163 17 61 36 123 42 139 11 27 12 28 25 10 14 -18 15
-18 36 11 32 44 75 83 125 112 41 24 46 25 57 10 7 -9 15 -17 18 -17 3 0 32
18 63 40 60 42 65 51 13 24 -17 -8 -38 -14 -47 -12 -23 4 97 74 318 186 196
98 197 103 15 60 -49 -12 -93 -27 -97 -32 -4 -6 -8 -7 -8 -3 0 7 -65 -25 -165
-82 -22 -13 -61 -39 -86 -57 -28 -20 -53 -32 -62 -28 -10 3 -21 -2 -29 -15 -7
-12 -21 -21 -30 -21 -10 0 -18 -7 -18 -15 0 -25 -44 -47 -73 -36 -14 5 -28 7
-31 4 -3 -4 -6 -2 -6 3 0 5 -19 8 -43 6 -42 -4 -45 -2 -107 65 -36 38 -74 87
-84 109 -11 21 -28 48 -37 59 -28 32 -29 75 -1 76 13 0 14 2 2 6 -8 3 -23 13
-33 21 -11 10 -32 15 -52 14 -24 -3 -39 3 -54 19 -12 13 -21 20 -21 16z"/>
<path d="M4510 2581 c0 -5 8 -11 18 -14 21 -7 101 -54 122 -72 8 -7 27 -15 43
-19 15 -3 27 -13 27 -22 0 -23 -32 -66 -45 -60 -8 3 -15 -7 -19 -26 -3 -18
-14 -32 -25 -35 -11 -3 -21 -15 -23 -27 -2 -17 -9 -21 -35 -20 -18 1 -33 -2
-33 -7 0 -9 75 -14 115 -8 28 4 55 2 89 -7 21 -5 27 -4 22 5 -6 10 12 16 37
12 4 0 7 5 7 12 0 7 9 19 19 26 20 15 20 49 1 61 -15 9 -1 40 17 40 8 0 13 6
10 13 -2 6 -11 11 -19 9 -11 -1 -13 6 -10 29 4 29 3 30 -17 20 -11 -7 -21 -18
-21 -26 0 -7 -3 -21 -7 -31 -5 -13 -3 -15 7 -9 9 6 11 4 5 -5 -5 -9 -14 -4
-30 16 l-23 29 24 28 c26 31 28 36 15 55 -6 10 -14 4 -29 -22 -12 -20 -28 -36
-37 -36 -20 0 -111 45 -152 76 -33 25 -53 31 -53 15z"/>
<path d="M8546 2253 c-26 -22 -27 -27 -18 -63 8 -32 7 -42 -5 -52 -20 -16 -52
-35 -86 -50 -18 -8 -30 -23 -34 -40 -3 -16 -12 -28 -19 -28 -8 0 -14 -3 -14
-7 0 -5 -27 -6 -60 -5 -43 3 -60 8 -60 18 0 17 -12 18 -27 3 -6 -6 -23 -9 -39
-7 -23 2 -30 9 -32 30 -4 33 -18 38 -116 45 -60 5 -77 3 -72 -6 6 -9 0 -10
-21 -5 -15 4 -32 11 -37 15 -16 14 -43 10 -50 -7 -9 -24 0 -33 79 -69 40 -18
75 -38 79 -44 4 -6 13 -11 19 -11 7 0 6 4 -3 11 -11 8 -7 9 18 5 27 -5 32 -3
32 14 0 25 22 26 98 4 70 -20 83 -31 59 -49 -19 -14 -45 -10 -87 12 -28 15
-59 17 -78 5 -9 -6 0 -14 28 -27 41 -18 50 -30 28 -38 -28 -9 59 -39 143 -49
85 -11 90 -10 112 10 12 11 34 24 50 27 15 4 32 16 38 26 5 11 16 19 23 19 18
0 46 33 46 54 0 17 5 20 53 31 28 6 29 7 24 63 -2 31 -13 87 -24 123 l-19 67
-28 -25z"/>
</g>
</svg>
